<svg width="88" height="88" viewBox="0 0 88 88" fill="none" xmlns="http://www.w3.org/2000/svg">
<g clip-path="url(#clip0_63_18)">
<path d="M60.5516 15.4462C56.4376 11.9518 52.1842 8.34383 47.9162 4.0795L44.0002 0.1745L40.1172 4.08317C34.3008 10.436 30.1255 18.1144 27.9549 26.4498C27.8999 26.2592 27.8486 26.0832 27.7972 25.8742L25.4726 16.8652L18.7002 23.2232C11.8986 29.5995 5.61391 37.2298 5.61024 49.7918C5.53872 58.2734 8.30351 66.5357 13.4654 73.2661C18.6272 79.9964 25.8901 84.8089 34.1002 86.9388C37.3244 87.7564 40.6374 88.1715 43.9636 88.1745C49.0077 88.1822 54.0038 87.1953 58.6661 85.2701C63.3284 83.3449 67.5653 80.5193 71.1344 76.955C74.7035 73.3906 77.5347 69.1575 79.4662 64.4978C81.3976 59.8381 82.3912 54.8433 82.3902 49.7992C82.3902 33.9885 72.2666 25.3938 60.5516 15.4462ZM60.8046 71.4032C60.4049 71.7112 59.9796 71.9678 59.5689 72.2538C60.4143 70.2163 60.8504 68.0322 60.8522 65.8262C60.8522 56.5165 52.4189 52.8022 43.9856 44.3762C34.7932 53.5685 27.1189 56.5165 27.1189 65.8262C27.1356 68.1621 27.6402 70.4689 28.6002 72.5985C24.8881 70.0699 21.8549 66.6671 19.7678 62.6899C17.6808 58.7127 16.6039 54.2833 16.6322 49.7918C16.5391 45.2243 18.0101 40.7622 20.8012 37.1455C21.2009 37.7762 21.6226 38.3848 22.0699 38.9788C23.0283 40.2732 24.344 41.2591 25.8554 41.8155C27.3667 42.3718 29.0078 42.4742 30.5766 42.1102C32.168 41.755 33.6233 40.9488 34.7684 39.7881C35.9136 38.6273 36.7 37.1612 37.0336 35.5652C38.33 28.6679 40.8682 22.0635 44.5246 16.0732C47.6192 18.9185 50.6479 21.4888 53.4199 23.8465C65.2192 33.8602 71.3866 39.5655 71.3866 49.7992C71.3961 53.9703 70.4468 58.0878 68.6119 61.8337C66.7771 65.5797 64.1059 68.8538 60.8046 71.4032Z" fill="black"/>
</g>
<defs>
<clipPath id="clip0_63_18">
<rect width="88" height="88" fill="white"/>
</clipPath>
</defs>
</svg>
