<svg width="837" height="137" viewBox="0 0 837 137" fill="none" xmlns="http://www.w3.org/2000/svg">
<path d="M0 5.18079H27.3131V80.3898C27.3131 88.1036 29.9057 94.5518 35.091 99.7345C40.2763 104.917 46.4262 107.508 53.5409 107.508C60.6556 107.508 66.8055 104.917 71.9908 99.7345C77.2967 94.5518 79.9496 88.1036 79.9496 80.3898V5.18079H107.082V80.3898C107.082 95.3352 101.957 107.87 91.7069 117.994C81.5775 127.998 68.8555 133 53.5409 133C38.4675 133 25.7455 128.058 15.3749 118.175C5.12497 108.171 0 95.5763 0 80.3898V5.18079Z" fill="#040404"/>
<path d="M122.526 5H225.267V30.3107H188.186V131.554H161.054V30.3107H122.526V5Z" fill="#040404"/>
<path d="M278.117 5V55.76H334.883V5H362V131H334.883V80.06H278.117V131H251V5H278.117Z" fill="black"/>
<path d="M508 131V5H565.619C578.022 5 588.559 9.32 597.229 17.96C606.019 26.6 610.414 36.8 610.414 48.56C610.414 56.72 608.066 64.28 603.37 71.24C598.794 78.2 592.713 83.18 585.127 86.18L612.221 131H581.514L556.408 89.6H535.094V131H508ZM565.619 66.2C570.797 66.2 575.193 64.4 578.805 60.8C582.418 57.2 584.224 52.82 584.224 47.66C584.224 42.5 582.418 38.18 578.805 34.7C575.193 31.1 570.797 29.3 565.619 29.3H535.094V66.2H565.619Z" fill="#040404"/>
<path d="M627.594 131V5H685.213C697.616 5 708.152 9.32 716.822 17.96C725.613 26.6 730.008 36.8 730.008 48.56C730.008 60.56 725.673 70.76 717.003 79.16C708.333 87.44 697.736 91.58 685.213 91.58H654.868V131H627.594ZM654.868 67.28H683.407C689.307 67.28 694.184 65.36 698.037 61.52C701.891 57.68 703.817 53.06 703.817 47.66C703.817 42.38 701.891 38 698.037 34.52C694.304 31.04 689.428 29.3 683.407 29.3H654.868V67.28Z" fill="#040404"/>
<path d="M837 5V30.02H772.517V55.76H829.775V80.24H772.517V105.98H837V131H745.423V5H837Z" fill="#040404"/>
<path d="M390 133V119.63L432.432 66.3319L391.798 17.5504V4H476.842V18.4538H430.634C427.997 18.4538 424.761 18.4538 420.925 18.4538C417.209 18.4538 414.393 18.3936 412.475 18.2731L449.333 62.1765V67.0546L408.519 118.546C413.074 118.546 417.449 118.546 421.644 118.546C425.96 118.426 430.515 118.366 435.309 118.366H479V133H390Z" fill="#A9874B"/>
<path fill-rule="evenodd" clip-rule="evenodd" d="M387.807 0H480.831V22.0578H420.854C420.774 22.0578 420.694 22.0578 420.614 22.0577L453.177 60.7742V68.37L416.196 114.942H421.525C425.885 114.821 430.482 114.761 435.313 114.761H483V137H386V118.482L427.556 66.3786L387.807 18.7464V0ZM395.339 7.55404V16.0021L437.287 66.2703L393.531 121.132V129.446H475.469V122.315H435.313C430.525 122.315 425.981 122.375 421.681 122.495L421.629 122.496H400.569L445.646 65.7293V63.535L403.798 13.7784L412.594 14.3298C414.401 14.4431 417.139 14.5038 420.854 14.5038H473.3V7.55404H395.339Z" fill="#A9874B"/>
</svg>
