<svg width="57" height="57" viewBox="0 0 57 57" fill="none" xmlns="http://www.w3.org/2000/svg">
<g clip-path="url(#clip0_34_31)">
<path d="M55.9577 50.9328L44.9255 39.896C53.1804 28.8646 50.9295 13.23 39.8982 4.97516C28.8669 -3.27968 13.2322 -1.02885 4.9774 10.0025C-3.27743 21.0338 -1.02661 36.6684 10.0047 44.9233C18.866 51.5543 31.0368 51.5543 39.8982 44.9233L50.9351 55.9602C52.3221 57.3471 54.5708 57.3471 55.9576 55.9602C57.3446 54.5732 57.3446 52.3245 55.9576 50.9376L55.9577 50.9328ZM25.0434 42.7931C15.2393 42.7931 7.29158 34.8453 7.29158 25.0412C7.29158 15.2371 15.2393 7.28933 25.0434 7.28933C34.8476 7.28933 42.7953 15.2371 42.7953 25.0412C42.7849 34.8409 34.8432 42.7826 25.0434 42.7931Z" fill="#FAFAFA"/>
</g>
<defs>
<clipPath id="clip0_34_31">
<rect width="57" height="57" fill="white"/>
</clipPath>
</defs>
</svg>
