<svg width="57" height="57" viewBox="0 0 57 57" fill="none" xmlns="http://www.w3.org/2000/svg">
<g clip-path="url(#clip0_17_362)">
<path d="M55.958 50.9328L44.9258 39.896C53.1806 28.8646 50.9298 13.23 39.8984 4.97516C28.8671 -3.27968 13.2325 -1.02885 4.97765 10.0025C-3.27719 21.0338 -1.02637 36.6684 10.005 44.9233C18.8663 51.5543 31.037 51.5543 39.8984 44.9233L50.9353 55.9602C52.3223 57.3471 54.571 57.3471 55.9579 55.9602C57.3449 54.5732 57.3449 52.3245 55.9579 50.9376L55.958 50.9328ZM25.0437 42.7931C15.2396 42.7931 7.29182 34.8453 7.29182 25.0412C7.29182 15.2371 15.2396 7.28933 25.0437 7.28933C34.8478 7.28933 42.7955 15.2371 42.7955 25.0412C42.7851 34.8409 34.8435 42.7826 25.0437 42.7931Z" fill="black"/>
</g>
<defs>
<clipPath id="clip0_17_362">
<rect width="57" height="57" fill="white"/>
</clipPath>
</defs>
</svg>
