<svg width="377" height="493" viewBox="0 0 377 493" fill="none" xmlns="http://www.w3.org/2000/svg">
<g filter="url(#filter0_d_10_200)">
<path d="M30.1987 324.513V291.834L134.42 161.558L34.6149 42.3215V9.20044H243.499V44.5296H130.004C123.527 44.5296 115.578 44.5296 106.156 44.5296C97.0298 44.5296 90.1111 44.3824 85.4006 44.088L175.932 151.4V163.324L75.6851 289.184C86.8726 289.184 97.6186 289.184 107.923 289.184C118.522 288.89 129.709 288.743 141.486 288.743H248.798V324.513H30.1987Z" fill="#FAFAFA"/>
<path fill-rule="evenodd" clip-rule="evenodd" d="M25.4161 0H252.701V53.7298H106.158C105.962 53.7298 105.767 53.7298 105.573 53.7296L185.134 148.038V166.54L94.7766 279.984H107.797C118.452 279.689 129.682 279.542 141.487 279.542H258V333.714H21V288.607L122.534 161.689L25.4161 45.6637V0ZM43.8168 18.4006V38.9791L146.309 161.426L39.4006 295.061V315.313H239.599V297.943H141.487C129.787 297.943 118.685 298.089 108.18 298.381L108.052 298.384H56.5967L166.733 160.108V154.763L64.4856 33.5623L85.9761 34.9055C90.3932 35.1816 97.0814 35.3292 106.158 35.3292H234.3V18.4006H43.8168Z" fill="#FAFAFA"/>
</g>
<path d="M359.2 3.84V18.72L305.632 28.8L359.2 39.552V60.864L305.824 71.232L359.2 81.312V96.192L292 82.08V60.768L348.544 50.208L292 39.264V17.952L359.2 3.84ZM359.2 153.046H345.856V118.774H332.128V149.206H319.072V118.774H305.344V153.046H292V104.374H359.2V153.046ZM359.2 210.797V232.685L292 255.053V240.173L305.344 235.853V207.341L292 202.925V187.949L359.2 210.797ZM318.4 231.629L349.216 221.741L318.4 211.565V231.629ZM292 262.249H359.2V276.649H305.344V309.385H292V262.249ZM292 317.561H359.2V331.961H305.344V364.697H292V317.561Z" fill="black"/>
<path d="M48.744 391.8L65.256 447.384L81.768 391.8H104.328V459H90.408V406.776L74.952 459H55.56L40.2 407.064V459H26.28V391.8H48.744ZM114.394 391.896H128.89V431.832C128.89 435.928 130.266 439.352 133.018 442.104C135.77 444.856 139.034 446.232 142.81 446.232C146.586 446.232 149.85 444.856 152.602 442.104C155.418 439.352 156.826 435.928 156.826 431.832V391.896H171.226V431.832C171.226 439.768 168.506 446.424 163.066 451.8C157.69 457.112 150.938 459.768 142.81 459.768C134.81 459.768 128.058 457.144 122.554 451.896C117.114 446.584 114.394 439.896 114.394 431.832V391.896ZM186.911 396.6C191.839 392.888 197.823 391.032 204.863 391.032C213.119 391.032 221.343 393.4 229.535 398.136V412.824C225.631 410.264 221.471 408.248 217.055 406.776C212.639 405.24 208.575 404.472 204.863 404.472C201.727 404.472 199.103 405.048 196.991 406.2C194.879 407.352 193.823 408.92 193.823 410.904C193.823 412.952 195.039 414.52 197.471 415.608C199.967 416.696 203.775 417.88 208.895 419.16L210.239 419.448C210.623 419.576 211.007 419.672 211.391 419.736C225.407 423.256 232.415 430.072 232.415 440.184C232.415 446.456 229.855 451.288 224.735 454.68C219.615 458.072 213.663 459.768 206.879 459.768C206.623 459.768 206.367 459.768 206.111 459.768C195.871 459.512 187.487 456.504 180.959 450.744V435.96C189.279 442.872 197.983 446.328 207.071 446.328C210.207 446.328 212.799 445.816 214.847 444.792C216.959 443.704 218.015 442.168 218.015 440.184C218.015 438.264 216.735 436.568 214.175 435.096C211.679 433.56 207.103 431.96 200.447 430.296C186.431 426.84 179.423 420.408 179.423 411C179.423 405.176 181.919 400.376 186.911 396.6ZM241.084 459V391.8H255.58V459H241.084ZM274.804 401.208C281.524 394.488 289.62 391.128 299.092 391.128C305.876 391.128 311.956 392.984 317.332 396.696C322.772 400.408 326.9 405.336 329.716 411.48L315.988 415.416C314.26 412.216 311.956 409.656 309.076 407.736C306.196 405.816 302.868 404.856 299.092 404.856C293.396 404.856 288.628 406.84 284.788 410.808C281.012 414.776 279.124 419.672 279.124 425.496C279.124 431.32 281.012 436.216 284.788 440.184C288.628 444.088 293.396 446.04 299.092 446.04C306.644 446.04 312.18 442.68 315.7 435.96L329.62 439.704C326.868 445.784 322.772 450.648 317.332 454.296C311.956 457.944 305.876 459.768 299.092 459.768C289.62 459.768 281.524 456.44 274.804 449.784C268.084 443.064 264.724 434.968 264.724 425.496C264.724 416.024 268.084 407.928 274.804 401.208Z" fill="#FAFAFA"/>
<defs>
<filter id="filter0_d_10_200" x="0" y="0" width="258" height="333.714" filterUnits="userSpaceOnUse" color-interpolation-filters="sRGB">
<feFlood flood-opacity="0" result="BackgroundImageFix"/>
<feColorMatrix in="SourceAlpha" type="matrix" values="0 0 0 0 0 0 0 0 0 0 0 0 0 0 0 0 0 0 127 0" result="hardAlpha"/>
<feOffset dx="-21"/>
<feComposite in2="hardAlpha" operator="out"/>
<feColorMatrix type="matrix" values="0 0 0 0 0 0 0 0 0 0 0 0 0 0 0 0 0 0 1 0"/>
<feBlend mode="normal" in2="BackgroundImageFix" result="effect1_dropShadow_10_200"/>
<feBlend mode="normal" in="SourceGraphic" in2="effect1_dropShadow_10_200" result="shape"/>
</filter>
</defs>
</svg>
